<svg width="24" height="24" viewBox="0 0 24 24" fill="none" xmlns="http://www.w3.org/2000/svg">
<path d="M24 24H0V0H24V24Z" stroke="#121715"/>
<path d="M12 0.999023C18.0751 0.999023 23 5.92389 23 11.999C23 18.0742 18.0751 22.999 12 22.999C5.92487 22.999 1 18.0742 1 11.999C1 5.92389 5.92487 0.999023 12 0.999023ZM12 2.99902C7.02944 2.99902 3 7.02846 3 11.999C3 16.9696 7.02944 20.999 12 20.999C16.9706 20.999 21 16.9696 21 11.999C21 7.02846 16.9706 2.99902 12 2.99902ZM12 5C12.5523 5 13 5.44772 13 6V11.3818L16.4473 13.1055C16.9412 13.3525 17.1415 13.9533 16.8945 14.4473C16.6475 14.9412 16.0467 15.1415 15.5527 14.8945L11.5527 12.8945C11.214 12.7251 11 12.3788 11 12V6C11 5.44772 11.4477 5 12 5Z" fill="#121715"/>
</svg>
