<svg width="24" height="24" viewBox="0 0 24 24" fill="none" xmlns="http://www.w3.org/2000/svg">
<path fill-rule="evenodd" clip-rule="evenodd" d="M19.2727 4H4.72727C4.48617 4 4.43675 4.10536 4.26627 4.29289C4.09578 4.48043 4 4.73478 4 5V19C4 19.2652 4.09578 19.5196 4.26627 19.7071C4.43675 19.8946 4.48617 20 4.72727 20H19.2727C19.5138 20 19.7451 19.8946 19.9156 19.7071C20.086 19.5196 20 19.2652 20 19V5C20 4.73478 19.9042 4.48043 19.7337 4.29289C19.5632 4.10536 19.5138 4 19.2727 4ZM4.72727 2C4.00395 2 3.31026 2.31607 2.7988 2.87868C2.28734 3.44129 2 4.20435 2 5V19C2 19.7956 2.28734 20.5587 2.7988 21.1213C3.31026 21.6839 4.00395 22 4.72727 22H19.2727C19.996 22 20.6897 21.6839 21.2012 21.1213C21.7127 20.5587 22 19.7956 22 19V5C22 4.20435 21.7127 3.44129 21.2012 2.87868C20.6897 2.31607 19.996 2 19.2727 2H4.72727ZM6.54545 7H8.36364V9H6.54545V7ZM11.0909 7C10.8498 7 10.6186 7.10536 10.4481 7.29289C10.2776 7.48043 10.1818 7.73478 10.1818 8C10.1818 8.26522 10.2776 8.51957 10.4481 8.70711C10.6186 8.89464 10.8498 9 11.0909 9H16.5455C16.7866 9 17.0178 8.89464 17.1883 8.70711C17.3588 8.51957 17.4545 8.26522 17.4545 8C17.4545 7.73478 17.3588 7.48043 17.1883 7.29289C17.0178 7.10536 16.7866 7 16.5455 7H11.0909ZM8.36364 11H6.54545V13H8.36364V11ZM10.1818 12C10.1818 11.7348 10.2776 11.4804 10.4481 11.2929C10.6186 11.1054 10.8498 11 11.0909 11H16.5455C16.7866 11 17.0178 11.1054 17.1883 11.2929C17.3588 11.4804 17.4545 11.7348 17.4545 12C17.4545 12.2652 17.3588 12.5196 17.1883 12.7071C17.0178 12.8946 16.7866 13 16.5455 13H11.0909C10.8498 13 10.6186 12.8946 10.4481 12.7071C10.2776 12.5196 10.1818 12.2652 10.1818 12ZM8.36364 15H6.54545V17H8.36364V15ZM10.1818 16C10.1818 15.7348 10.2776 15.4804 10.4481 15.2929C10.6186 15.1054 10.8498 15 11.0909 15H16.5455C16.7866 15 17.0178 15.1054 17.1883 15.2929C17.3588 15.4804 17.4545 15.7348 17.4545 16C17.4545 16.2652 17.3588 16.5196 17.1883 16.7071C17.0178 16.8946 16.7866 17 16.5455 17H11.0909C10.8498 17 10.6186 16.8946 10.4481 16.7071C10.2776 16.5196 10.1818 16.2652 10.1818 16Z" fill="#121715"/>
</svg>
