<svg width="24" height="25" viewBox="0 0 24 25" fill="none" xmlns="http://www.w3.org/2000/svg">
<path d="M9.66667 18.5V18.3752C9.66667 17.4477 9.088 16.6392 8.3635 16.0605C7.41787 15.3064 6.73004 14.2769 6.39522 13.1147C6.06039 11.9524 6.09512 10.7148 6.49461 9.5732C6.8941 8.43156 7.63858 7.44232 8.62502 6.74241C9.61145 6.0425 10.7911 5.66653 12.0006 5.66653C13.2101 5.66653 14.3897 6.0425 15.3762 6.74241C16.3626 7.44232 17.1071 8.43156 17.5066 9.5732C17.906 10.7148 17.9408 11.9524 17.6059 13.1147C17.2711 14.2769 16.5833 15.3064 15.6377 16.0605C14.912 16.6403 14.3333 17.4477 14.3333 18.3752V18.5M9.66667 18.5V20.8333C9.66667 21.1428 9.78958 21.4395 10.0084 21.6583C10.2272 21.8771 10.5239 22 10.8333 22H13.1667C13.4761 22 13.7728 21.8771 13.9916 21.6583C14.2104 21.4395 14.3333 21.1428 14.3333 20.8333V18.5M9.66667 18.5H14.3333M21.3333 11.5H22.5M2.66667 11.5H1.5M12 2.16667V1M18.5998 4.90017L19.4247 4.07533M5.40133 4.90017L4.57533 4.07533M12 15V12.6667" stroke="#121715" stroke-width="2" stroke-linecap="round" stroke-linejoin="round"/>
</svg>
