<svg width="49" height="28" viewBox="0 0 49 28" fill="none" xmlns="http://www.w3.org/2000/svg">
<rect width="49" height="28" rx="14" fill="#CCFBF1"/>
<path fill-rule="evenodd" clip-rule="evenodd" d="M12 14C12 10.1339 15.1339 7 19 7C22.8661 7 26 10.1339 26 14C26 17.8661 22.8661 21 19 21C15.1339 21 12 17.8661 12 14ZM15.6729 18.5052L15.9949 16.5697C16.0494 16.2428 16.2181 15.9459 16.471 15.7317C16.7239 15.5175 17.0446 15.4 17.376 15.4H20.624C20.9553 15.4001 21.2758 15.5177 21.5285 15.7319C21.7813 15.9461 21.9499 16.2429 22.0044 16.5697L22.3271 18.5052C21.3643 19.2178 20.1978 19.6017 19 19.6C17.8021 19.6022 16.6354 19.2183 15.6729 18.5052ZM16.9 14V12.397C16.9 12.3321 16.9181 12.2684 16.9522 12.2131C16.9863 12.1579 17.0351 12.1132 17.0932 12.0841L20.5932 10.3341C20.6466 10.3074 20.7059 10.2947 20.7655 10.2974C20.8251 10.3 20.8831 10.3178 20.9339 10.3492C20.9847 10.3806 21.0266 10.4244 21.0557 10.4765C21.0847 10.5286 21.1 10.5873 21.1 10.647V14H16.9Z" fill="#115E59"/>
<path d="M33.4727 19V10.7148H33.3633L30.8818 12.4854V10.9814L33.4795 9.13574H35.0107V19H33.4727Z" fill="#121715"/>
</svg>
